<?xml version="1.0" encoding="UTF-8" standalone="no"?>
<!-- Generator: Adobe Illustrator 26.3.1, SVG Export Plug-In . SVG Version: 6.00 Build 0)  -->

<svg
   version="1.1"
   id="Layer_1"
   x="0px"
   y="0px"
   viewBox="0 0 283.46499 166.392"
   xml:space="preserve"
   sodipodi:docname="eci-logo-white-text.svg"
   width="283.465"
   height="166.392"
   inkscape:version="1.2.2 (732a01da63, 2022-12-09, custom)"
   xmlns:inkscape="http://www.inkscape.org/namespaces/inkscape"
   xmlns:sodipodi="http://sodipodi.sourceforge.net/DTD/sodipodi-0.dtd"
   xmlns="http://www.w3.org/2000/svg"
   xmlns:svg="http://www.w3.org/2000/svg"><defs
   id="defs301" /><sodipodi:namedview
   id="namedview299"
   pagecolor="#ffffff"
   bordercolor="#000000"
   borderopacity="0.25"
   inkscape:showpageshadow="2"
   inkscape:pageopacity="0.0"
   inkscape:pagecheckerboard="0"
   inkscape:deskcolor="#d1d1d1"
   showgrid="false"
   inkscape:zoom="1.7925493"
   inkscape:cx="210.87286"
   inkscape:cy="139.18724"
   inkscape:window-width="1920"
   inkscape:window-height="1016"
   inkscape:window-x="0"
   inkscape:window-y="0"
   inkscape:window-maximized="1"
   inkscape:current-layer="Layer_1" />
<style
   type="text/css"
   id="style25">
	.st0{fill:#FFFFFF;}
	.st1{fill:#4F89AC;}
	.st2{fill:#FBF9F6;}
	.st3{fill:#1B254F;}
</style>
<g
   id="g56"
   transform="translate(-14.173,-14.173)">
	<g
   id="g29">
		<polygon
   class="st0"
   points="14.173,49.331 149.915,49.331 149.915,180.565 14.173,180.565 "
   id="polygon27" />
	</g>
	<g
   id="g54">
		<g
   id="g33">
			<polygon
   class="st1"
   points="15.347,50.467 148.741,50.467 148.741,179.43 15.347,179.43 "
   id="polygon31" />
		</g>
		<g
   id="g41">
			<path
   class="st0"
   d="m 32.312,137.517 c 0.171,6.747 1.898,11.866 5.181,15.36 3.282,3.494 7.591,5.24 12.926,5.24 2.393,0 4.769,-0.393 7.129,-1.182 2.359,-0.788 4.701,-1.969 7.027,-3.545 l 0.872,0.771 -1.644,4.315 c -2.843,1.644 -5.771,2.877 -8.784,3.699 -3.014,0.822 -6.113,1.233 -9.298,1.233 -6.953,0 -12.56,-2.2 -16.824,-6.601 -4.264,-4.4 -6.396,-10.368 -6.396,-17.903 0,-5.754 1.199,-10.736 3.596,-14.949 1.575,-2.774 4.486,-5.343 8.733,-7.705 4.246,-2.363 8.374,-3.545 12.381,-3.545 6.062,0 10.865,1.781 14.41,5.343 3.544,3.562 5.317,8.545 5.317,14.949 l -0.103,3.031 c -2.257,0.548 -4.412,0.908 -6.463,1.079 -3.659,0.274 -8.738,0.411 -15.235,0.411 H 32.312 Z m 0.102,-3.854 c 5.308,0.24 11.164,0.36 17.569,0.36 2.568,0 5.051,-0.12 7.448,-0.36 v -2.876 c 0,-3.014 -0.599,-5.873 -1.798,-8.579 -0.754,-1.678 -2.072,-3.074 -3.955,-4.187 -1.884,-1.112 -4.058,-1.669 -6.524,-1.669 -3.836,0 -6.901,1.404 -9.195,4.212 -2.295,2.809 -3.477,7.175 -3.545,13.099 z"
   id="path35" />
			<path
   class="st0"
   d="m 111.577,155.085 1.387,1.233 -2.106,3.288 c -2.329,1.267 -4.726,2.217 -7.192,2.851 -2.466,0.633 -4.983,0.95 -7.551,0.95 -5.035,0 -9.307,-0.959 -12.817,-2.877 -3.511,-1.918 -6.225,-4.691 -8.142,-8.322 -1.918,-3.63 -2.877,-7.945 -2.877,-12.946 0,-4.418 0.736,-8.262 2.209,-11.532 1.472,-3.27 3.536,-5.831 6.19,-7.68 2.653,-1.849 5.967,-3.664 9.94,-5.445 2.808,-1.267 5.941,-1.901 9.401,-1.901 2.636,0 4.906,0.215 6.807,0.645 1.901,0.429 3.947,1.193 6.139,2.292 -0.857,4.535 -1.319,9.07 -1.387,13.604 h -3.236 v -2.568 c 0,-2.191 -0.317,-3.741 -0.95,-4.649 -0.634,-0.907 -2.08,-1.806 -4.341,-2.697 -2.26,-0.89 -4.726,-1.336 -7.397,-1.336 -4.623,0 -8.186,1.411 -10.685,4.233 -2.5,2.822 -3.75,7.037 -3.75,12.647 0,7.218 1.85,12.998 5.549,17.341 3.321,3.934 7.603,5.901 12.843,5.901 2.055,0 4.075,-0.257 6.062,-0.771 1.982,-0.514 3.952,-1.267 5.904,-2.261 z"
   id="path37" />
			<path
   class="st0"
   d="m 136.132,112.498 1.233,0.771 c -0.24,2.568 -0.395,5.394 -0.463,8.476 -0.24,10 -0.359,17.381 -0.359,22.141 0,4.453 0.154,8.254 0.462,11.404 0.137,1.233 0.463,2.089 0.976,2.568 0.514,0.48 1.746,0.84 3.698,1.079 l 3.493,0.462 v 2.98 c -5,-0.24 -9.555,-0.359 -13.664,-0.359 -4.041,0 -8.117,0.12 -12.226,0.359 v -2.98 l 4.418,-0.463 c 1.712,-0.137 2.765,-0.455 3.159,-0.953 0.393,-0.498 0.642,-2.155 0.745,-4.971 0.171,-4.361 0.257,-10.369 0.257,-18.027 0,-5.322 -0.086,-9.425 -0.257,-12.31 -0.069,-1.064 -0.369,-1.82 -0.899,-2.266 -0.531,-0.446 -1.721,-0.669 -3.57,-0.669 h -3.853 v -2.979 c 4.178,-0.608 7.251,-1.167 9.221,-1.675 1.97,-0.505 4.513,-1.369 7.629,-2.588 z m -4.109,-22.757 c 1.575,0 2.928,0.574 4.058,1.721 1.131,1.148 1.695,2.526 1.695,4.136 0,1.61 -0.565,2.979 -1.695,4.109 -1.13,1.13 -2.483,1.695 -4.058,1.695 -1.61,0 -2.979,-0.565 -4.11,-1.695 -1.13,-1.13 -1.695,-2.499 -1.695,-4.109 0,-1.61 0.565,-2.988 1.695,-4.136 1.13,-1.147 2.5,-1.721 4.11,-1.721 z"
   id="path39" />
		</g>
		<g
   id="XMLID_2_">
			<g
   id="g49">
				<path
   class="st2"
   d="m 140.789,86.697 c -1.094,5.465 -2.917,9.68 -5.469,12.645 -1.999,2.322 -3.962,3.484 -5.886,3.484 -1.329,0 -2.423,-0.549 -3.286,-1.65 -0.859,-1.098 -1.287,-2.664 -1.287,-4.7 0,-2.768 0.499,-5.539 1.5,-8.316 1.002,-2.781 2.183,-4.72 3.543,-5.832 1.362,-1.107 2.746,-1.661 4.154,-1.661 1.454,0 2.787,0.51 4,1.524 1.211,1.024 2.123,2.522 2.731,4.506 z"
   id="path43" />
				<path
   class="st2"
   d="m 139.251,71.859 c -1.478,-1.762 -3.444,-2.64 -5.902,-2.64 -1.658,0 -3.033,0.356 -4.129,1.07 -1.094,0.712 -2.076,1.775 -2.932,3.185 h -1.072 c 1.201,-2.825 2.502,-4.876 3.892,-6.152 1.393,-1.281 3.073,-1.92 5.043,-1.92 1.404,0 2.779,0.439 4.114,1.313 1.338,0.876 2.414,2.291 3.238,4.239 0.819,1.948 1.228,4.584 1.228,7.909 0,1.926 -0.112,3.791 -0.336,5.597 l -1.206,-0.147 c 0.185,-2.021 0.281,-3.683 0.281,-4.988 0,-3.215 -0.74,-5.706 -2.219,-7.466 z"
   id="path45" />
				<path
   class="st2"
   d="m 142.395,84.461 c -0.507,4.129 -1.601,7.947 -3.277,11.455 -2.708,5.634 -6.135,8.448 -10.284,8.448 -2.438,0 -4.375,-0.806 -5.807,-2.414 -1.432,-1.606 -2.148,-3.798 -2.148,-6.57 0,-2.091 0.365,-4.145 1.092,-6.152 0.727,-2.012 1.645,-3.714 2.759,-5.109 1.111,-1.395 2.348,-2.504 3.71,-3.323 1.77,-1.076 3.569,-1.61 5.401,-1.61 1.283,0 2.447,0.281 3.486,0.846 1.041,0.564 1.898,1.248 2.57,2.054 0.424,0.501 0.854,1.243 1.294,2.229 z m -7.075,14.881 c 2.552,-2.965 4.375,-7.18 5.469,-12.645 -0.608,-1.983 -1.52,-3.481 -2.732,-4.505 -1.212,-1.015 -2.546,-1.524 -4,-1.524 -1.408,0 -2.792,0.554 -4.154,1.661 -1.36,1.111 -2.541,3.051 -3.543,5.832 -1.002,2.776 -1.5,5.548 -1.5,8.316 0,2.036 0.428,3.602 1.287,4.7 0.863,1.1 1.957,1.65 3.286,1.65 1.924,-0.002 3.888,-1.164 5.887,-3.485 z"
   id="path47" />
			</g>
			<g
   id="g51">
			</g>
		</g>
	</g>
</g>
<g
   id="g114"
   transform="translate(-14.173,-14.173)">
	<path
   class="st0"
   d="m 25.582,26.399 c -0.132,0.728 -0.573,2.803 -0.772,3.487 H 14.173 v -0.618 c 2.008,-0.154 2.184,-0.331 2.184,-2.118 v -8.783 c 0,-1.986 -0.177,-2.052 -1.898,-2.207 v -0.618 h 9.842 c 0,0.551 0.11,2.052 0.177,3.178 l -0.64,0.11 c -0.199,-0.927 -0.419,-1.412 -0.706,-1.898 -0.309,-0.463 -0.905,-0.618 -2.494,-0.618 h -1.677 c -0.684,0 -0.728,0.045 -0.728,0.706 v 5.01 h 2.074 c 1.986,0 2.096,-0.177 2.383,-1.655 h 0.64 v 4.237 H 22.69 C 22.403,23.023 22.249,22.89 20.329,22.89 h -2.096 v 4.171 c 0,1.037 0.133,1.5 0.529,1.788 0.419,0.265 1.192,0.287 2.295,0.287 1.677,0 2.295,-0.177 2.781,-0.75 0.375,-0.441 0.794,-1.192 1.081,-2.074 z"
   id="path58" />
	<path
   class="st0"
   d="m 33.018,29.885 v -0.573 c 1.302,-0.133 1.456,-0.309 1.456,-1.832 v -3.685 c 0,-1.522 -0.53,-2.516 -2.008,-2.516 -0.883,0 -1.743,0.552 -2.405,1.126 v 5.186 c 0,1.501 0.133,1.589 1.434,1.722 v 0.573 h -4.788 v -0.573 c 1.5,-0.155 1.611,-0.265 1.611,-1.722 v -4.568 c 0,-1.412 -0.133,-1.478 -1.324,-1.699 v -0.508 c 1.059,-0.198 2.096,-0.463 3.067,-0.904 v 1.765 c 0.441,-0.331 0.927,-0.662 1.478,-1.037 0.618,-0.397 1.192,-0.662 1.832,-0.662 1.743,0 2.847,1.214 2.847,3.354 v 4.259 c 0,1.501 0.111,1.589 1.39,1.722 v 0.573 h -4.59 z"
   id="path60" />
	<path
   class="st0"
   d="m 48.664,20.793 c -1.148,0.155 -1.346,0.353 -1.942,1.677 -0.728,1.656 -1.898,4.37 -3.111,7.658 H 43.015 C 42.022,27.48 41.007,24.964 39.97,22.404 39.463,21.124 39.286,20.97 38.094,20.793 v -0.551 h 4.524 v 0.551 c -1.192,0.155 -1.236,0.331 -0.883,1.28 0.574,1.544 1.456,3.862 2.096,5.451 0.772,-1.832 1.478,-3.84 1.964,-5.274 0.331,-1.06 0.198,-1.302 -1.06,-1.457 v -0.551 h 3.928 v 0.551 z"
   id="path62" />
	<path
   class="st0"
   d="m 49.06,29.885 v -0.573 c 1.39,-0.133 1.545,-0.265 1.545,-1.766 V 23 c 0,-1.368 -0.067,-1.456 -1.39,-1.677 v -0.53 c 1.125,-0.176 2.162,-0.463 3.133,-0.86 v 7.613 c 0,1.5 0.155,1.633 1.567,1.766 v 0.573 z m 1.17,-12.953 c 0,-0.662 0.529,-1.148 1.126,-1.148 0.618,0 1.103,0.485 1.103,1.148 0,0.596 -0.485,1.126 -1.125,1.126 -0.575,-0.001 -1.104,-0.53 -1.104,-1.126 z"
   id="path64" />
	<path
   class="st0"
   d="m 58.306,22.316 c 0.662,-1.104 1.611,-2.339 2.671,-2.339 0.75,0 1.28,0.573 1.28,1.104 0,0.441 -0.287,0.882 -0.706,1.081 -0.265,0.111 -0.463,0.089 -0.596,-0.044 -0.309,-0.331 -0.573,-0.463 -0.927,-0.463 -0.573,0 -1.28,0.662 -1.765,1.898 v 4.038 c 0,1.456 0.11,1.589 1.81,1.722 v 0.573 h -5.076 v -0.573 c 1.368,-0.133 1.523,-0.265 1.523,-1.722 v -4.568 c 0,-1.456 -0.111,-1.545 -1.368,-1.721 v -0.486 c 1.081,-0.176 2.052,-0.441 3.111,-0.904 v 2.405 h 0.043 z"
   id="path66" />
	<path
   class="st0"
   d="m 72.892,24.898 c 0,3.553 -2.604,5.252 -4.788,5.252 -3.023,0 -4.833,-2.427 -4.833,-4.877 0,-3.641 2.825,-5.296 4.833,-5.296 2.736,0 4.788,2.185 4.788,4.921 z m -7.569,-0.331 c 0,2.781 1.214,4.855 3.023,4.855 1.368,0 2.494,-1.015 2.494,-4.038 0,-2.582 -1.038,-4.678 -2.957,-4.678 -1.369,-0.001 -2.56,1.368 -2.56,3.861 z"
   id="path68" />
	<path
   class="st0"
   d="m 80.659,29.885 v -0.573 c 1.302,-0.133 1.456,-0.309 1.456,-1.832 v -3.685 c 0,-1.522 -0.53,-2.516 -2.008,-2.516 -0.883,0 -1.743,0.552 -2.405,1.126 v 5.186 c 0,1.501 0.133,1.589 1.434,1.722 v 0.573 h -4.788 v -0.573 c 1.5,-0.155 1.611,-0.265 1.611,-1.722 v -4.568 c 0,-1.412 -0.133,-1.478 -1.324,-1.699 v -0.508 c 1.059,-0.198 2.096,-0.463 3.067,-0.904 v 1.765 c 0.441,-0.331 0.927,-0.662 1.478,-1.037 0.618,-0.397 1.192,-0.662 1.832,-0.662 1.743,0 2.847,1.214 2.847,3.354 v 4.259 c 0,1.501 0.111,1.589 1.39,1.722 v 0.573 h -4.59 z"
   id="path70" />
	<path
   class="st0"
   d="m 98.644,29.885 v -0.573 c 1.302,-0.133 1.544,-0.221 1.544,-1.788 v -3.685 c 0,-1.566 -0.551,-2.56 -1.942,-2.56 -0.794,0 -1.633,0.441 -2.472,1.148 0.045,0.265 0.067,0.507 0.067,0.927 v 4.304 c 0,1.39 0.199,1.522 1.412,1.655 v 0.573 h -4.722 v -0.573 c 1.368,-0.133 1.566,-0.243 1.566,-1.7 v -3.795 c 0,-1.633 -0.573,-2.538 -1.92,-2.538 -0.883,0 -1.743,0.596 -2.405,1.148 v 5.186 c 0,1.434 0.177,1.567 1.258,1.7 v 0.573 h -4.656 v -0.573 c 1.456,-0.133 1.655,-0.265 1.655,-1.7 v -4.568 c 0,-1.412 -0.067,-1.523 -1.346,-1.721 v -0.508 c 0.971,-0.176 2.096,-0.463 3.067,-0.904 V 21.7 c 0.463,-0.309 0.949,-0.706 1.611,-1.126 0.574,-0.353 1.103,-0.596 1.809,-0.596 1.06,0 2.008,0.662 2.45,1.81 0.64,-0.485 1.28,-0.905 1.832,-1.236 0.463,-0.309 1.037,-0.573 1.655,-0.573 1.721,0 2.803,1.214 2.803,3.376 v 4.259 c 0,1.479 0.176,1.567 1.434,1.7 v 0.573 h -4.7 z"
   id="path72" />
	<path
   class="st0"
   d="m 112.568,28.01 c -1.39,1.743 -2.913,2.14 -3.597,2.14 -2.715,0 -4.304,-2.207 -4.304,-4.7 0,-1.522 0.552,-2.869 1.457,-3.862 0.904,-1.015 2.096,-1.611 3.243,-1.611 1.832,0 3.31,1.633 3.31,3.354 0,0.441 -0.11,0.618 -0.507,0.706 -0.375,0.066 -3.133,0.287 -5.759,0.375 0.022,3.001 1.743,4.237 3.288,4.237 0.883,0 1.721,-0.353 2.516,-1.104 z m -6.047,-4.502 c 1.236,0 2.45,-0.022 3.729,-0.066 0.397,0 0.529,-0.133 0.529,-0.441 0.023,-1.148 -0.728,-2.207 -1.942,-2.207 -1.014,-0.001 -1.985,0.926 -2.316,2.714 z"
   id="path74" />
	<path
   class="st0"
   d="m 120.181,29.885 v -0.573 c 1.302,-0.133 1.456,-0.309 1.456,-1.832 v -3.685 c 0,-1.522 -0.53,-2.516 -2.008,-2.516 -0.883,0 -1.743,0.552 -2.405,1.126 v 5.186 c 0,1.501 0.133,1.589 1.434,1.722 v 0.573 h -4.788 v -0.573 c 1.5,-0.155 1.611,-0.265 1.611,-1.722 v -4.568 c 0,-1.412 -0.133,-1.478 -1.324,-1.699 v -0.508 c 1.059,-0.198 2.096,-0.463 3.067,-0.904 v 1.765 c 0.441,-0.331 0.927,-0.662 1.478,-1.037 0.618,-0.397 1.192,-0.662 1.832,-0.662 1.743,0 2.847,1.214 2.847,3.354 v 4.259 c 0,1.501 0.111,1.589 1.39,1.722 v 0.573 h -4.59 z"
   id="path76" />
	<path
   class="st0"
   d="m 130.375,29.863 c -0.375,0.199 -0.729,0.287 -0.927,0.287 -1.39,0 -2.163,-0.883 -2.163,-2.626 v -6.421 h -1.522 l -0.088,-0.221 0.596,-0.64 h 1.015 v -1.611 l 1.435,-1.456 0.309,0.044 v 3.023 h 2.493 c 0.199,0.221 0.133,0.706 -0.132,0.861 h -2.361 v 5.671 c 0,1.787 0.728,2.118 1.28,2.118 0.552,0 1.06,-0.221 1.368,-0.375 l 0.199,0.574 z"
   id="path78" />
	<path
   class="st0"
   d="m 139.709,30.15 c -0.331,0 -0.795,-0.199 -1.038,-0.419 -0.287,-0.309 -0.419,-0.618 -0.529,-0.993 -0.883,0.596 -1.942,1.412 -2.604,1.412 -1.567,0 -2.648,-1.302 -2.648,-2.692 0,-1.082 0.574,-1.766 1.787,-2.185 1.324,-0.441 2.935,-1.037 3.421,-1.434 v -0.397 c 0,-1.589 -0.75,-2.494 -1.854,-2.494 -0.441,0 -0.772,0.177 -0.993,0.441 -0.287,0.287 -0.485,0.772 -0.662,1.456 -0.089,0.353 -0.331,0.507 -0.64,0.507 -0.397,0 -0.971,-0.441 -0.971,-0.949 0,-0.331 0.287,-0.573 0.706,-0.883 0.618,-0.441 2.052,-1.302 3.31,-1.544 0.662,0 1.324,0.199 1.81,0.596 0.772,0.64 0.993,1.545 0.993,2.693 v 4.104 c 0,0.993 0.397,1.324 0.772,1.324 0.265,0 0.574,-0.111 0.795,-0.243 l 0.221,0.573 z m -1.611,-5.561 c -0.463,0.243 -1.523,0.706 -1.986,0.926 -0.86,0.397 -1.346,0.817 -1.346,1.611 0,1.148 0.882,1.7 1.566,1.7 0.574,-0.023 1.346,-0.397 1.766,-0.795 z"
   id="path80" />
	<path
   class="st0"
   d="m 142.048,29.885 v -0.573 c 1.39,-0.133 1.589,-0.265 1.589,-1.722 V 17.153 c 0,-1.5 -0.132,-1.567 -1.522,-1.677 v -0.529 c 1.148,-0.133 2.515,-0.508 3.266,-0.773 V 27.59 c 0,1.456 0.176,1.589 1.588,1.722 v 0.573 z"
   id="path82" />
	<path
   class="st0"
   d="m 165.726,26.355 c -0.353,0.861 -1.236,2.626 -1.743,3.332 -0.662,0.155 -2.229,0.529 -3.796,0.529 -3.685,0 -6.421,-2.229 -6.421,-6.355 0,-5.23 4.06,-8.65 9.158,-8.65 1.766,0 3.156,0.485 3.773,0.728 -0.066,1.126 -0.088,2.317 -0.177,3.376 l -0.662,0.066 c -0.111,-2.626 -1.258,-3.398 -3.443,-3.398 -3.884,0 -6.51,3.729 -6.51,7.812 0,3.156 1.567,5.671 4.524,5.671 2.207,0 3.508,-1.5 4.722,-3.42 z"
   id="path84" />
	<path
   class="st0"
   d="m 176.869,28.032 c -1.17,1.346 -2.538,2.118 -3.178,2.118 -0.574,0 -0.728,-0.618 -0.375,-2.14 l 1.17,-5.12 c 0.265,-1.17 0.176,-1.566 -0.177,-1.566 -1.015,0 -3.597,2.471 -4.678,4.391 -0.221,0.971 -0.618,2.935 -0.816,4.016 -0.508,0.089 -1.082,0.243 -1.567,0.419 l -0.155,-0.177 c 0.949,-4.259 1.92,-8.717 2.781,-13.24 0.243,-1.148 0.133,-1.214 -0.728,-1.236 l -0.64,-0.022 0.067,-0.529 c 1.743,-0.177 2.935,-0.773 3.243,-0.773 0.199,0 0.221,0.177 0.089,0.773 l -1.986,9.157 h 0.044 c 1.457,-1.964 3.09,-3.133 4.083,-3.663 0.574,-0.309 1.081,-0.463 1.478,-0.463 0.551,0 1.17,0.397 0.618,2.803 l -1.148,4.943 c -0.133,0.64 -0.111,0.794 0.066,0.794 0.221,0 0.905,-0.419 1.523,-1.015 z"
   id="path86" />
	<path
   class="st0"
   d="m 187.858,27.855 c -1.192,1.479 -2.671,2.295 -3.222,2.295 -0.419,0 -0.706,-0.331 -0.397,-1.942 l 0.441,-2.096 h -0.044 c -0.861,1.214 -1.898,2.273 -2.847,3.045 -0.728,0.596 -1.456,0.993 -2.052,0.993 -0.574,0 -1.28,-0.728 -1.28,-2.493 0,-2.229 1.037,-4.634 2.648,-5.981 1.104,-0.927 2.714,-1.699 4.104,-1.699 0.463,0 0.905,0.066 1.368,0.155 0.309,0.066 0.596,0.132 0.839,0.132 l 0.066,0.089 c -0.353,1.368 -1.015,4.369 -1.522,7.172 -0.155,0.772 -0.089,0.949 0.044,0.949 0.176,0 0.949,-0.507 1.588,-1.148 z m -2.869,-3.442 c 0.243,-0.883 0.574,-2.472 0.728,-3.178 -0.309,-0.154 -0.904,-0.309 -1.478,-0.309 -0.573,0 -1.192,0.177 -1.566,0.463 -1.501,1.104 -2.384,3.707 -2.384,5.892 0,0.993 0.287,1.456 0.596,1.456 0.86,0.001 3.354,-2.802 4.104,-4.324 z"
   id="path88" />
	<path
   class="st0"
   d="m 199.332,28.01 c -1.302,1.412 -2.537,2.14 -3.111,2.14 -0.551,0 -0.75,-0.596 -0.353,-2.295 0.419,-1.655 0.794,-3.265 1.192,-4.898 0.309,-1.258 0.176,-1.589 -0.177,-1.589 -0.971,0 -3.531,2.736 -4.634,4.612 -0.265,1.082 -0.596,2.406 -0.86,3.729 -0.574,0.111 -1.17,0.287 -1.589,0.441 l -0.133,-0.177 c 0.596,-2.383 1.258,-5.031 1.788,-7.48 0.177,-0.706 0.11,-0.883 -0.022,-0.883 -0.199,0 -0.883,0.463 -1.434,0.993 l -0.287,-0.529 c 1.192,-1.302 2.493,-2.096 3.111,-2.096 0.507,0 0.596,0.75 0.176,2.449 l -0.463,1.92 h 0.044 c 1.5,-2.052 3.133,-3.332 4.06,-3.884 0.574,-0.331 1.037,-0.485 1.478,-0.485 0.529,0 1.148,0.331 0.485,3.155 -0.353,1.501 -0.706,3.045 -1.081,4.59 -0.133,0.596 -0.111,0.794 0.044,0.794 0.199,0 0.794,-0.397 1.456,-1.037 z"
   id="path90" />
	<path
   class="st0"
   d="m 210.653,20.485 c -0.64,0.706 -1.214,0.971 -1.567,1.037 -0.177,0.045 -0.331,0.067 -0.574,0.067 0.11,0.309 0.176,0.64 0.176,1.236 0,1.567 -0.86,2.737 -1.677,3.376 -0.596,0.485 -1.589,1.038 -2.847,1.28 -0.265,0.221 -0.441,0.441 -0.441,0.706 0,0.331 0.529,0.728 1.589,1.28 2.118,1.126 2.979,1.986 2.979,2.935 0,1.831 -3.09,3.155 -5.208,3.155 -2.14,0 -3.994,-1.104 -3.95,-2.471 0.022,-0.949 1.28,-1.942 3.707,-3.178 -0.551,-0.353 -0.838,-0.794 -0.816,-1.081 0,-0.353 0.309,-0.751 1.346,-1.368 -1.258,-0.287 -1.92,-1.192 -1.92,-2.693 0,-1.434 0.728,-2.803 1.853,-3.685 0.905,-0.728 2.03,-1.104 2.825,-1.104 0.706,0 1.39,0.199 1.876,0.618 1.28,-0.023 2.074,-0.265 2.494,-0.53 z m -3.972,12.512 c 0,-0.596 -0.596,-1.148 -1.611,-1.743 -0.728,-0.441 -1.346,-0.795 -1.655,-0.949 -1.478,0.706 -2.45,1.589 -2.45,2.405 0,1.126 1.457,1.92 3.001,1.92 1.655,0 2.715,-0.773 2.715,-1.633 z m 0.375,-10.107 c 0,-1.258 -0.507,-2.14 -1.478,-2.14 -0.64,0 -1.214,0.397 -1.611,0.993 -0.463,0.662 -0.838,1.678 -0.838,2.869 0,1.302 0.64,1.986 1.434,1.986 1.169,-10e-4 2.493,-1.347 2.493,-3.708 z"
   id="path92" />
	<path
   class="st0"
   d="m 217.471,27.657 c -1.942,2.074 -3.597,2.493 -4.656,2.493 -1.015,0 -2.427,-0.596 -2.427,-3.222 0,-2.074 0.905,-4.391 2.648,-5.715 0.949,-0.728 2.118,-1.236 3.045,-1.236 1.17,0 1.942,0.816 1.942,1.765 0,2.185 -3.707,3.377 -5.826,3.906 -0.044,0.265 -0.044,0.485 -0.044,0.706 0,1.192 0.375,2.494 1.721,2.494 0.927,0 2.118,-0.618 3.222,-1.7 z m -3.112,-6.51 c -0.596,0.331 -1.699,1.346 -2.074,3.818 3.156,-0.838 4.083,-1.854 4.083,-2.869 0,-0.772 -0.463,-1.214 -1.104,-1.214 -0.309,0 -0.662,0.11 -0.905,0.265 z"
   id="path94" />
	<path
   class="st0"
   d="m 224.135,29.885 v -0.618 c 1.809,-0.132 1.986,-0.265 1.986,-2.14 V 18.3 c 0,-1.876 -0.177,-2.008 -1.986,-2.14 v -0.618 h 5.847 v 0.618 c -1.809,0.132 -1.986,0.265 -1.986,2.14 v 8.827 c 0,1.898 0.177,2.008 1.986,2.14 v 0.618 z"
   id="path96" />
	<path
   class="st0"
   d="m 237.772,29.885 v -0.573 c 1.302,-0.133 1.456,-0.309 1.456,-1.832 v -3.685 c 0,-1.522 -0.53,-2.516 -2.008,-2.516 -0.883,0 -1.743,0.552 -2.405,1.126 v 5.186 c 0,1.501 0.133,1.589 1.434,1.722 v 0.573 h -4.788 v -0.573 c 1.5,-0.155 1.611,-0.265 1.611,-1.722 v -4.568 c 0,-1.412 -0.133,-1.478 -1.324,-1.699 v -0.508 c 1.059,-0.198 2.096,-0.463 3.067,-0.904 v 1.765 c 0.441,-0.331 0.927,-0.662 1.478,-1.037 0.618,-0.397 1.192,-0.662 1.832,-0.662 1.743,0 2.847,1.214 2.847,3.354 v 4.259 c 0,1.501 0.111,1.589 1.39,1.722 v 0.573 h -4.59 z"
   id="path98" />
	<path
   class="st0"
   d="m 249.379,22.846 c -0.419,-1.302 -1.192,-2.184 -2.273,-2.184 -0.839,0 -1.434,0.662 -1.434,1.522 0,0.993 0.883,1.501 1.876,1.92 1.655,0.684 2.781,1.479 2.781,3.001 0,2.008 -1.876,3.045 -3.641,3.045 -1.126,0 -2.14,-0.419 -2.538,-0.75 -0.154,-0.309 -0.353,-1.81 -0.353,-2.604 l 0.574,-0.111 c 0.397,1.457 1.39,2.737 2.715,2.737 0.816,0 1.566,-0.618 1.566,-1.545 0,-0.971 -0.64,-1.5 -1.743,-2.008 -1.324,-0.618 -2.759,-1.346 -2.759,-3.045 0,-1.545 1.324,-2.847 3.355,-2.847 0.904,0 1.5,0.199 1.964,0.375 0.177,0.507 0.419,1.809 0.485,2.361 z"
   id="path100" />
	<path
   class="st0"
   d="m 256.065,29.863 c -0.375,0.199 -0.729,0.287 -0.927,0.287 -1.39,0 -2.163,-0.883 -2.163,-2.626 v -6.421 h -1.522 l -0.088,-0.221 0.596,-0.64 h 1.015 v -1.611 l 1.435,-1.456 0.309,0.044 v 3.023 h 2.493 c 0.199,0.221 0.133,0.706 -0.132,0.861 h -2.361 v 5.671 c 0,1.787 0.728,2.118 1.28,2.118 0.552,0 1.06,-0.221 1.368,-0.375 l 0.199,0.574 z"
   id="path102" />
	<path
   class="st0"
   d="m 258.426,29.885 v -0.573 c 1.39,-0.133 1.545,-0.265 1.545,-1.766 V 23 c 0,-1.368 -0.067,-1.456 -1.39,-1.677 v -0.53 c 1.125,-0.176 2.162,-0.463 3.133,-0.86 v 7.613 c 0,1.5 0.155,1.633 1.567,1.766 v 0.573 z m 1.169,-12.953 c 0,-0.662 0.529,-1.148 1.126,-1.148 0.618,0 1.103,0.485 1.103,1.148 0,0.596 -0.485,1.126 -1.125,1.126 -0.574,-0.001 -1.104,-0.53 -1.104,-1.126 z"
   id="path104" />
	<path
   class="st0"
   d="m 268.709,29.863 c -0.375,0.199 -0.729,0.287 -0.927,0.287 -1.39,0 -2.163,-0.883 -2.163,-2.626 v -6.421 h -1.522 l -0.088,-0.221 0.596,-0.64 h 1.015 v -1.611 l 1.435,-1.456 0.309,0.044 v 3.023 h 2.493 c 0.199,0.221 0.133,0.706 -0.132,0.861 h -2.361 v 5.671 c 0,1.787 0.728,2.118 1.28,2.118 0.552,0 1.06,-0.221 1.368,-0.375 l 0.199,0.574 z"
   id="path106" />
	<path
   class="st0"
   d="m 281.794,29.356 c -1.016,0.154 -2.141,0.463 -3.244,0.794 l -0.133,-0.132 v -1.567 c -0.507,0.375 -1.015,0.772 -1.633,1.148 -0.64,0.375 -1.103,0.551 -1.699,0.551 -1.478,0 -2.737,-0.905 -2.737,-3.288 v -4.325 c 0,-1.214 -0.088,-1.302 -1.346,-1.545 v -0.507 c 1.037,-0.066 2.096,-0.199 3.155,-0.397 -0.066,0.684 -0.066,1.722 -0.066,3.222 v 2.957 c 0,1.964 0.949,2.493 1.942,2.493 0.794,0 1.633,-0.331 2.383,-1.059 v -5.142 c 0,-1.258 -0.132,-1.346 -1.721,-1.567 v -0.507 c 1.148,-0.066 2.295,-0.155 3.465,-0.397 v 7.371 c 0,1.103 0.176,1.258 1.015,1.302 l 0.618,0.044 v 0.551 z"
   id="path108" />
	<path
   class="st0"
   d="m 287.156,29.863 c -0.375,0.199 -0.729,0.287 -0.927,0.287 -1.39,0 -2.163,-0.883 -2.163,-2.626 v -6.421 h -1.522 l -0.088,-0.221 0.596,-0.64 h 1.015 v -1.611 l 1.435,-1.456 0.309,0.044 v 3.023 h 2.493 c 0.199,0.221 0.133,0.706 -0.132,0.861 h -2.361 v 5.671 c 0,1.787 0.728,2.118 1.28,2.118 0.552,0 1.06,-0.221 1.368,-0.375 l 0.199,0.574 z"
   id="path110" />
	<path
   class="st0"
   d="m 297.527,28.01 c -1.39,1.743 -2.913,2.14 -3.597,2.14 -2.715,0 -4.304,-2.207 -4.304,-4.7 0,-1.522 0.552,-2.869 1.457,-3.862 0.905,-1.015 2.096,-1.611 3.243,-1.611 1.832,0 3.311,1.633 3.311,3.354 0,0.441 -0.111,0.618 -0.508,0.706 -0.375,0.066 -3.133,0.287 -5.759,0.375 0.022,3.001 1.743,4.237 3.288,4.237 0.883,0 1.721,-0.353 2.516,-1.104 z m -6.046,-4.502 c 1.236,0 2.45,-0.022 3.729,-0.066 0.397,0 0.529,-0.133 0.529,-0.441 0.023,-1.148 -0.728,-2.207 -1.942,-2.207 -1.014,-0.001 -1.985,0.926 -2.316,2.714 z"
   id="path112" />
</g>
<g
   id="g296"
   transform="translate(-14.173,-14.173)">
	<rect
   x="166.40401"
   y="49.331001"
   class="st0"
   width="131.23399"
   height="131.02699"
   id="rect116" />
	<rect
   x="167.53799"
   y="50.362999"
   class="st3"
   width="128.964"
   height="128.964"
   id="rect118" />
	<g
   id="g158">
		<path
   class="st0"
   d="m 185.058,141.69 c -0.429,0.429 -1.102,0.766 -2.111,0.766 -0.824,0 -1.613,-0.255 -2.146,-0.789 -0.696,-0.696 -0.673,-1.578 -0.673,-2.343 v -4.757 h 1.044 v 4.873 c 0,0.591 -0.023,1.172 0.441,1.635 0.313,0.313 0.8,0.487 1.369,0.487 0.569,0 0.998,-0.197 1.276,-0.475 0.522,-0.522 0.476,-1.114 0.476,-2.425 v -4.095 h 1.021 v 3.933 c -0.001,1.438 0.045,2.447 -0.697,3.19 z"
   id="path120" />
		<path
   class="st0"
   d="m 193.211,142.305 -3.654,-6.16 0.023,6.16 h -0.951 v -7.738 h 1.033 l 3.654,6.183 -0.023,-6.183 h 0.951 v 7.738 z"
   id="path122" />
		<path
   class="st0"
   d="m 197.365,142.305 v -7.738 h 1.044 v 7.738 z"
   id="path124" />
		<path
   class="st0"
   d="m 204.212,142.305 h -1.149 l -2.668,-7.738 h 1.079 l 2.193,6.671 2.251,-6.671 h 1.009 z"
   id="path126" />
		<path
   class="st0"
   d="m 208.954,142.305 v -7.738 h 4.281 v 0.858 h -3.26 v 2.436 h 3.063 v 0.835 h -3.063 v 2.727 h 3.353 v 0.881 h -4.374 z"
   id="path128" />
		<path
   class="st0"
   d="m 219.946,142.305 -0.893,-2.018 c -0.534,-1.195 -0.789,-1.3 -1.833,-1.3 h -0.487 v 3.318 h -1.021 v -7.738 h 1.717 c 1.033,0 1.833,-0.012 2.46,0.615 0.383,0.383 0.603,0.893 0.603,1.543 0,0.534 -0.151,0.986 -0.476,1.334 -0.278,0.302 -0.731,0.557 -1.241,0.615 0.255,0.012 0.511,0.163 0.661,0.313 0.232,0.232 0.395,0.603 0.603,1.079 l 0.998,2.239 z m -0.823,-6.508 c -0.418,-0.418 -0.963,-0.406 -1.589,-0.406 h -0.8 v 2.772 h 0.36 c 0.742,0 1.497,0.024 1.984,-0.464 0.244,-0.243 0.383,-0.603 0.383,-0.975 -0.002,-0.417 -0.164,-0.754 -0.338,-0.927 z"
   id="path130" />
		<path
   class="st0"
   d="m 225.023,142.467 c -1.369,0 -2.285,-0.742 -2.378,-0.835 l 0.499,-0.719 c 0.139,0.093 0.893,0.661 1.833,0.661 0.951,0 1.508,-0.568 1.508,-1.276 0,-0.847 -0.947,-1.264 -1.783,-1.671 -0.986,-0.476 -1.837,-0.986 -1.837,-2.123 0,-1.23 0.998,-2.088 2.425,-2.088 1.427,0 2.135,0.708 2.204,0.789 l -0.522,0.673 c -0.093,-0.081 -0.708,-0.58 -1.613,-0.58 -0.847,0 -1.45,0.418 -1.45,1.113 0,0.731 0.684,1.002 1.45,1.396 0.684,0.348 2.204,0.877 2.204,2.397 0.001,1.277 -0.939,2.263 -2.54,2.263 z"
   id="path132" />
		<path
   class="st0"
   d="m 230.01,142.305 v -7.738 h 1.044 v 7.738 z"
   id="path134" />
		<path
   class="st0"
   d="m 236.385,135.425 v 6.879 h -1.044 v -6.879 h -2.274 v -0.858 h 5.58 v 0.858 z"
   id="path136" />
		<path
   class="st0"
   d="m 243.153,139.242 v 3.063 h -1.033 v -3.063 l -2.448,-4.675 h 1.14 l 1.887,3.641 1.851,-3.641 h 1.049 z"
   id="path138" />
		<path
   class="st0"
   d="m 254.259,142.456 c -2.042,0 -3.515,-1.659 -3.515,-4.003 0,-2.39 1.462,-4.037 3.573,-4.037 2.065,0 3.503,1.647 3.503,3.98 0,2.412 -1.45,4.06 -3.561,4.06 z m -0.012,-7.158 c -1.473,0 -2.437,1.241 -2.437,3.132 0,1.879 1.079,3.132 2.494,3.132 1.613,0 2.448,-1.38 2.448,-3.202 10e-4,-1.844 -1.031,-3.062 -2.505,-3.062 z"
   id="path140" />
		<path
   class="st0"
   d="m 261.328,135.425 v 2.436 h 2.97 v 0.835 h -2.97 v 3.608 h -1.033 v -7.738 h 4.188 v 0.858 h -3.155 z"
   id="path142" />
		<g
   id="g156">
			<path
   class="st0"
   d="m 195.809,157.513 c 0,4.956 -3.816,8.545 -8.59,8.545 -4.86,0 -8.59,-3.635 -8.59,-8.362 0,-4.952 3.822,-8.544 8.59,-8.544 4.866,0 8.59,3.633 8.59,8.361 z m -2.765,0.091 c 0,-4.499 -2.138,-7.54 -5.825,-7.54 -3.998,0 -5.815,3.679 -5.815,7.54 0,4.501 2.136,7.558 5.815,7.558 4.004,0 5.825,-3.687 5.825,-7.558 z"
   id="path144" />
			<path
   class="st0"
   d="m 248.264,157.513 c 0,4.956 -3.818,8.545 -8.59,8.545 -4.859,0 -8.59,-3.635 -8.59,-8.362 0,-4.952 3.819,-8.544 8.59,-8.544 4.862,0 8.59,3.633 8.59,8.361 z m -2.77,0.091 c 0,-4.499 -2.137,-7.54 -5.821,-7.54 -4.001,0 -5.818,3.679 -5.818,7.54 0,4.501 2.136,7.558 5.818,7.558 4,0 5.821,-3.687 5.821,-7.558 z"
   id="path146" />
			<path
   class="st0"
   d="m 254.9,157.65 h 2.045 c 3.091,0 3.729,-1.898 3.729,-3.767 0,-1.399 -0.593,-2.54 -2.045,-3.178 -0.776,-0.319 -1.503,-0.364 -2.501,-0.364 H 254.9 Z m 3.73,2.693 c -0.955,-1.369 -1.32,-1.781 -2.501,-1.781 H 254.9 v 5.462 c 0,0.457 0.136,0.682 0.682,0.775 l 1.865,0.363 v 0.642 h -7.361 v -0.642 l 1.679,-0.363 c 0.547,-0.139 0.679,-0.318 0.679,-0.775 v -12.816 c 0,-0.457 -0.177,-0.687 -0.679,-0.778 l -1.679,-0.366 v -0.636 h 7.178 c 1.503,0 2.546,0.135 3.41,0.455 1.771,0.682 2.77,2.371 2.77,3.953 0,2.005 -1.497,3.677 -3.999,4.271 v 0.092 c 0.502,0.225 0.773,0.55 2.547,2.871 l 2.273,2.954 c 0.316,0.457 0.682,0.775 1.27,0.867 l 1.548,0.271 v 0.642 h -3.952 c -0.457,0 -0.685,-0.139 -1.093,-0.689 z"
   id="path148" />
			<path
   class="st0"
   d="m 226.584,155.067 h 0.773 v 5.415 h -0.773 l -0.32,-1.555 c -0.131,-0.59 -0.496,-0.82 -1.044,-0.82 h -3.952 v 5.917 c 0,0.457 0.136,0.682 0.678,0.775 l 1.868,0.363 v 0.642 h -7.366 v -0.642 l 1.679,-0.363 c 0.548,-0.139 0.685,-0.318 0.685,-0.775 v -12.816 c 0,-0.457 -0.183,-0.687 -0.685,-0.778 l -1.679,-0.366 v -0.636 h 12.409 v 4.088 h -0.77 l -0.639,-2.309 c -0.182,-0.642 -0.547,-0.867 -1.092,-0.867 h -5.088 v 6.852 h 3.952 c 0.548,0 0.912,-0.214 1.044,-0.802 z"
   id="path150" />
			<path
   class="st0"
   d="m 268.401,165.804 v -0.642 l 1.68,-0.363 c 0.547,-0.139 0.683,-0.318 0.683,-0.775 v -12.816 c 0,-0.457 -0.182,-0.687 -0.683,-0.778 l -1.68,-0.366 v -0.636 h 7.683 c 2.09,0 3.591,0.27 4.814,0.82 3.094,1.416 4.501,4.455 4.501,7.448 0,2.919 -1.087,5.64 -3.862,7.103 -1.272,0.681 -3.044,1.005 -5.362,1.005 z m 4.774,-15.463 v 13.816 c 0,0.595 0.135,0.734 0.727,0.734 h 1.999 c 1.908,0 3.317,-0.231 4.318,-0.959 1.683,-1.231 2.41,-3.36 2.41,-6.189 0,-2.768 -0.726,-5.397 -3,-6.72 -0.959,-0.546 -2.182,-0.682 -4.092,-0.682 z"
   id="path152" />
			<path
   class="st0"
   d="m 202.267,165.162 v 0.642 h -5.866 v -0.642 l 1.454,-0.317 c 0.546,-0.139 0.956,-0.318 1.277,-0.735 l 4.912,-6.275 -4.912,-6.628 c -0.321,-0.457 -0.731,-0.687 -1.231,-0.823 l -1.36,-0.321 v -0.636 h 7.229 v 0.636 l -1.548,0.276 c -0.498,0.09 -0.451,0.225 -0.176,0.59 l 3.631,5.141 h 0.092 l 3.77,-5.05 c 0.274,-0.364 0.274,-0.546 -0.137,-0.637 l -1.452,-0.321 v -0.636 h 5.86 v 0.636 l -1.451,0.321 c -0.548,0.136 -0.959,0.319 -1.275,0.73 l -4.677,5.865 5.222,7.045 c 0.319,0.457 0.73,0.682 1.232,0.821 l 1.36,0.317 v 0.642 h -7.23 v -0.642 l 1.552,-0.271 c 0.494,-0.092 0.447,-0.231 0.181,-0.596 l -3.96,-5.546 h -0.089 l -4.045,5.546 c -0.275,0.365 -0.318,0.457 0.181,0.55 z"
   id="path154" />
		</g>
	</g>
	<path
   class="st0"
   d="m 258.435,82.185 c 0,-0.955 -0.323,-1.725 -1.022,-2.135 -0.439,-0.258 -1.032,-0.342 -1.763,-0.342 h -5.296 v 10.741 h 5.766 c 1.335,0 2.12,0.3 2.188,1.498 h 0.128 z"
   id="path160" />
	<path
   class="st0"
   d="m 259.358,82.185 c 0,-0.955 0.323,-1.725 1.022,-2.135 0.438,-0.258 1.032,-0.342 1.763,-0.342 h 5.333 v 10.741 h -5.803 c -1.335,0 -2.12,0.3 -2.188,1.498 h -0.128 z"
   id="path162" />
	<path
   class="st0"
   d="m 268.656,80.392 c 0,0 0,10.671 0,11.513 -0.814,0 -8.382,0 -8.382,0 l -0.115,0.284 c -0.136,0.337 -0.383,0.649 -1.254,0.649 -0.871,0 -1.117,-0.312 -1.253,-0.649 l -0.115,-0.284 c 0,0 -7.542,0 -8.356,0 0,-0.842 0,-11.513 0,-11.513 h -0.91 v 0.298 l -0.638,-0.196 c -0.093,-0.283 -0.357,-0.489 -0.672,-0.489 -0.392,0 -0.711,0.319 -0.711,0.711 0,0.392 0.319,0.711 0.711,0.711 0.163,0 0.312,-0.057 0.432,-0.15 l 0.878,0.269 v 0.879 l -0.631,-0.113 c -0.109,-0.23 -0.335,-0.396 -0.606,-0.409 -0.392,-0.019 -0.726,0.283 -0.745,0.676 -0.019,0.392 0.284,0.726 0.676,0.744 0.206,0.01 0.395,-0.071 0.531,-0.205 l 0.775,0.139 v 0.899 l -0.662,-0.029 c -0.127,-0.197 -0.346,-0.328 -0.597,-0.328 -0.392,0 -0.711,0.319 -0.711,0.711 0,0.393 0.319,0.711 0.711,0.711 0.228,0 0.429,-0.109 0.559,-0.276 l 0.701,0.031 v 0.977 l -0.685,0.024 c -0.13,-0.169 -0.333,-0.281 -0.562,-0.281 -0.392,0 -0.711,0.319 -0.711,0.711 0,0.392 0.319,0.711 0.711,0.711 0.249,0 0.467,-0.128 0.594,-0.323 l 0.653,-0.024 v 0.9 l -0.757,0.13 c -0.129,-0.129 -0.307,-0.209 -0.503,-0.209 -0.392,0 -0.711,0.319 -0.711,0.711 0,0.393 0.319,0.711 0.711,0.711 0.283,0 0.525,-0.166 0.64,-0.405 l 0.62,-0.107 v 0.881 l -0.84,0.256 c -0.12,-0.093 -0.269,-0.15 -0.432,-0.15 -0.392,0 -0.711,0.318 -0.711,0.711 0,0.393 0.319,0.711 0.711,0.711 0.314,0 0.578,-0.205 0.672,-0.489 l 0.6,-0.183 v 0.848 l -0.938,0.405 c -0.116,-0.072 -0.254,-0.11 -0.4,-0.104 -0.392,0.016 -0.698,0.347 -0.682,0.739 0.016,0.393 0.348,0.698 0.739,0.682 0.331,-0.013 0.599,-0.253 0.665,-0.564 l 0.617,-0.266 v 0.835 c 0,0 8.227,0 8.705,0 0.37,0.614 0.993,0.933 1.929,0.933 0.937,0 1.56,-0.319 1.93,-0.933 0.478,0 8.732,0 8.732,0 V 80.392 Z"
   id="path164" />
	<g
   id="g170">
		<path
   class="st0"
   d="m 253.2,76.657 c -1.753,0 -3.174,0.273 -3.174,0.609 0,0.337 1.421,0.609 3.174,0.609 1.752,0 3.173,-0.272 3.173,-0.609 0,-0.337 -1.421,-0.609 -3.173,-0.609 z"
   id="path166" />
		<path
   class="st0"
   d="m 257.569,72.726 -1.832,1.288 -0.016,0.131 0.435,0.195 c 0.086,0.043 0.087,0.112 0.043,0.154 l -1.151,0.971 -0.109,-0.009 -0.815,-1.202 c -0.056,-0.078 -0.036,-0.156 0.062,-0.172 l 0.547,-0.089 v -0.138 l -1.419,-2.004 h -0.233 l -1.418,2.004 v 0.138 l 0.547,0.089 c 0.098,0.016 0.118,0.094 0.062,0.172 l -0.816,1.202 -0.109,0.009 -1.074,-0.971 c -0.044,-0.042 -0.043,-0.111 0.043,-0.154 l 0.436,-0.195 -0.016,-0.131 -1.908,-1.288 -0.155,0.061 1.121,3.423 c 0.569,-0.256 1.875,-0.435 3.404,-0.443 1.53,0.007 2.836,0.187 3.405,0.443 l 1.121,-3.423 z"
   id="path168" />
	</g>
	<g
   id="g176">
		<path
   class="st0"
   d="m 258.892,99.612 c -1.753,0 -3.174,0.272 -3.174,0.609 0,0.337 1.42,0.609 3.174,0.609 1.752,0 3.173,-0.272 3.173,-0.609 0,-0.337 -1.422,-0.609 -3.173,-0.609 z"
   id="path172" />
		<path
   class="st0"
   d="m 263.261,95.681 -1.832,1.288 -0.016,0.131 0.435,0.195 c 0.086,0.043 0.087,0.112 0.043,0.154 l -1.151,0.971 -0.109,-0.01 -0.815,-1.201 c -0.056,-0.078 -0.036,-0.156 0.063,-0.172 l 0.547,-0.089 V 96.81 l -1.418,-2.004 h -0.234 l -1.418,2.004 v 0.138 l 0.547,0.089 c 0.098,0.016 0.119,0.094 0.062,0.172 l -0.815,1.201 -0.109,0.01 -1.075,-0.971 c -0.044,-0.042 -0.043,-0.111 0.043,-0.154 l 0.436,-0.195 -0.016,-0.131 -1.908,-1.288 -0.155,0.06 1.12,3.423 c 0.569,-0.255 1.875,-0.435 3.405,-0.442 1.53,0.007 2.836,0.187 3.405,0.442 l 1.12,-3.423 z"
   id="path174" />
	</g>
	<g
   id="g182">
		<path
   class="st0"
   d="m 264.569,76.657 c -1.753,0 -3.174,0.273 -3.174,0.609 0,0.337 1.421,0.609 3.174,0.609 1.752,0 3.173,-0.272 3.173,-0.609 0,-0.337 -1.421,-0.609 -3.173,-0.609 z"
   id="path178" />
		<path
   class="st0"
   d="m 268.938,72.726 -1.832,1.288 -0.016,0.131 0.435,0.195 c 0.086,0.043 0.087,0.112 0.043,0.154 l -1.151,0.971 -0.109,-0.009 -0.815,-1.202 c -0.056,-0.078 -0.036,-0.156 0.062,-0.172 l 0.547,-0.089 v -0.138 l -1.419,-2.004 h -0.233 l -1.418,2.004 v 0.138 l 0.547,0.089 c 0.098,0.016 0.118,0.094 0.062,0.172 l -0.816,1.202 -0.109,0.009 -1.074,-0.984 c -0.044,-0.042 -0.044,-0.111 0.043,-0.154 l 0.436,-0.183 -0.016,-0.131 -1.908,-1.288 -0.155,0.061 1.12,3.423 c 0.568,-0.256 1.874,-0.435 3.404,-0.443 1.53,0.007 2.836,0.187 3.405,0.443 l 1.12,-3.423 z"
   id="path180" />
	</g>
	<path
   class="st0"
   d="m 259.517,63.511 c 0,0.359 -0.291,0.65 -0.651,0.65 -0.359,0 -0.651,-0.291 -0.651,-0.65 0,-0.359 0.292,-0.651 0.651,-0.651 0.36,0 0.651,0.292 0.651,0.651 z"
   id="path184" />
	<path
   class="st0"
   d="m 274.714,69.578 c -0.019,0.359 -0.325,0.635 -0.684,0.616 -0.359,-0.018 -0.635,-0.324 -0.617,-0.684 0.019,-0.358 0.325,-0.634 0.684,-0.615 0.359,0.018 0.635,0.325 0.617,0.683 z"
   id="path186" />
	<g
   id="g196">
		<path
   class="st3"
   d="m 251.703,81.361 c 0.292,0 0.533,0.057 0.691,0.211 0.112,0.107 0.204,0.282 0.204,0.486 0,0.59 -0.447,0.843 -0.995,0.843 h -0.611 v -0.092 c 0.173,-0.015 0.191,-0.031 0.191,-0.287 V 81.74 c 0,-0.255 -0.019,-0.272 -0.172,-0.286 v -0.093 z m -0.116,1.163 c 0,0.211 0.052,0.251 0.166,0.251 0.204,0 0.41,-0.225 0.41,-0.644 0,-0.509 -0.258,-0.651 -0.46,-0.651 -0.055,0 -0.085,0.008 -0.102,0.017 -0.012,0.004 -0.014,0.059 -0.014,0.118 z"
   id="path188" />
		<path
   class="st3"
   d="m 254.393,82.112 c 0,0.507 -0.346,0.824 -0.801,0.824 -0.478,0 -0.789,-0.348 -0.789,-0.784 0,-0.384 0.256,-0.826 0.821,-0.826 0.435,0 0.769,0.317 0.769,0.786 z m -1.148,-0.041 c 0,0.429 0.161,0.742 0.393,0.742 0.204,0 0.315,-0.196 0.315,-0.625 0,-0.476 -0.171,-0.739 -0.375,-0.739 -0.182,0 -0.333,0.208 -0.333,0.622 z"
   id="path190" />
		<path
   class="st3"
   d="m 256.485,81.361 v 0.093 c -0.18,0.016 -0.19,0.026 -0.183,0.275 l 0.024,0.794 c 0.007,0.263 0.012,0.27 0.182,0.287 v 0.09 h -0.741 v -0.092 c 0.178,-0.017 0.185,-0.024 0.182,-0.287 l -0.007,-0.834 h -0.01 l -0.457,1.187 h -0.128 l -0.434,-1.104 h -0.004 l -0.017,0.526 c -0.007,0.203 -0.004,0.317 0.005,0.39 0.009,0.088 0.061,0.109 0.215,0.121 V 82.9 h -0.585 v -0.092 c 0.114,-0.01 0.159,-0.033 0.173,-0.121 0.012,-0.073 0.026,-0.199 0.038,-0.414 l 0.026,-0.479 c 0.016,-0.298 -0.002,-0.324 -0.189,-0.341 V 81.36 h 0.557 l 0.415,0.938 0.362,-0.938 h 0.576 z"
   id="path192" />
		<path
   class="st3"
   d="m 257.254,82.522 c 0,0.255 0.019,0.272 0.182,0.287 V 82.9 h -0.767 v -0.092 c 0.164,-0.015 0.182,-0.031 0.182,-0.287 V 81.74 c 0,-0.255 -0.019,-0.272 -0.182,-0.286 v -0.093 h 0.767 v 0.093 c -0.163,0.014 -0.182,0.031 -0.182,0.286 z"
   id="path194" />
	</g>
	<g
   id="g204">
		<path
   class="st3"
   d="m 253.44,85.759 h -0.204 l -0.876,-1.118 h -0.005 v 0.435 c 0,0.249 0.01,0.379 0.019,0.453 0.012,0.083 0.076,0.114 0.232,0.121 v 0.092 h -0.59 V 85.65 c 0.104,-0.005 0.166,-0.038 0.178,-0.121 0.009,-0.074 0.019,-0.204 0.019,-0.453 v -0.435 c 0,-0.175 -0.005,-0.206 -0.052,-0.272 -0.036,-0.05 -0.095,-0.066 -0.179,-0.073 v -0.092 h 0.523 l 0.789,0.983 h 0.004 V 84.87 c 0,-0.249 -0.009,-0.379 -0.019,-0.452 -0.012,-0.083 -0.076,-0.114 -0.232,-0.121 v -0.092 h 0.603 v 0.092 c -0.118,0.005 -0.18,0.038 -0.191,0.121 -0.009,0.073 -0.019,0.203 -0.019,0.452 z"
   id="path198" />
		<path
   class="st3"
   d="m 254.399,85.759 c -0.163,-0.426 -0.386,-1.011 -0.471,-1.234 -0.078,-0.203 -0.126,-0.215 -0.239,-0.23 v -0.092 h 0.765 v 0.092 l -0.08,0.009 c -0.088,0.009 -0.088,0.031 -0.062,0.114 0.043,0.132 0.23,0.599 0.318,0.831 0.073,-0.201 0.225,-0.654 0.263,-0.765 0.05,-0.145 0.036,-0.171 -0.071,-0.183 l -0.071,-0.007 v -0.092 h 0.574 v 0.092 c -0.135,0.017 -0.168,0.028 -0.261,0.244 -0.014,0.033 -0.303,0.737 -0.481,1.22 h -0.184 z"
   id="path200" />
		<path
   class="st3"
   d="m 255.467,85.255 c 0.049,0.137 0.189,0.4 0.422,0.4 0.123,0 0.218,-0.081 0.218,-0.235 0,-0.14 -0.092,-0.218 -0.237,-0.284 l -0.036,-0.017 c -0.194,-0.09 -0.415,-0.213 -0.415,-0.466 0,-0.267 0.194,-0.486 0.566,-0.486 0.073,0 0.149,0.009 0.218,0.028 0.054,0.014 0.092,0.024 0.123,0.033 0.01,0.092 0.026,0.208 0.052,0.369 l -0.104,0.016 c -0.052,-0.156 -0.135,-0.324 -0.322,-0.324 -0.121,0 -0.206,0.092 -0.206,0.206 0,0.118 0.092,0.187 0.244,0.256 l 0.052,0.024 c 0.218,0.1 0.405,0.22 0.405,0.497 0,0.291 -0.234,0.504 -0.601,0.504 -0.095,0 -0.192,-0.019 -0.256,-0.04 -0.071,-0.024 -0.12,-0.043 -0.149,-0.057 -0.019,-0.109 -0.05,-0.236 -0.078,-0.395 z"
   id="path202" />
	</g>
	<g
   id="g214">
		<path
   class="st3"
   d="m 252.387,88.205 c 0,0.255 0.019,0.272 0.182,0.287 v 0.092 h -0.767 v -0.092 c 0.164,-0.015 0.182,-0.032 0.182,-0.287 v -0.782 c 0,-0.256 -0.019,-0.272 -0.182,-0.287 v -0.092 h 0.767 v 0.092 c -0.164,0.014 -0.182,0.031 -0.182,0.287 z"
   id="path206" />
		<path
   class="st3"
   d="m 253.324,88.236 c 0,0.123 0.004,0.182 0.047,0.203 0.038,0.02 0.092,0.021 0.166,0.021 0.076,0 0.178,-0.007 0.227,-0.068 0.038,-0.045 0.078,-0.109 0.116,-0.235 l 0.102,0.017 c -0.014,0.09 -0.064,0.336 -0.085,0.41 h -1.175 v -0.092 c 0.18,-0.015 0.199,-0.032 0.199,-0.287 v -0.782 c 0,-0.256 -0.019,-0.272 -0.177,-0.287 v -0.092 h 0.77 v 0.092 c -0.171,0.014 -0.189,0.031 -0.189,0.287 v 0.813 z"
   id="path208" />
		<path
   class="st3"
   d="m 254.646,88.236 c 0,0.123 0.005,0.182 0.048,0.203 0.038,0.02 0.092,0.021 0.165,0.021 0.076,0 0.178,-0.007 0.227,-0.068 0.038,-0.045 0.078,-0.109 0.116,-0.235 l 0.102,0.017 c -0.014,0.09 -0.064,0.336 -0.085,0.41 h -1.175 v -0.092 c 0.18,-0.015 0.199,-0.032 0.199,-0.287 v -0.782 c 0,-0.256 -0.019,-0.272 -0.178,-0.287 v -0.092 h 0.77 v 0.092 c -0.171,0.014 -0.19,0.031 -0.19,0.287 v 0.813 z"
   id="path210" />
		<path
   class="st3"
   d="m 255.777,88.601 c -0.163,-0.427 -0.386,-1.012 -0.471,-1.234 -0.078,-0.204 -0.125,-0.215 -0.239,-0.23 v -0.092 h 0.765 v 0.092 l -0.081,0.009 c -0.087,0.009 -0.087,0.031 -0.061,0.114 0.043,0.132 0.23,0.599 0.318,0.831 0.073,-0.201 0.225,-0.654 0.263,-0.765 0.049,-0.145 0.035,-0.171 -0.072,-0.183 l -0.071,-0.007 v -0.092 h 0.573 v 0.092 c -0.135,0.016 -0.168,0.028 -0.26,0.244 -0.014,0.033 -0.303,0.736 -0.481,1.22 h -0.183 z"
   id="path212" />
	</g>
	<g
   id="g224">
		<path
   class="st3"
   d="m 262.319,81.412 v 0.093 c -0.18,0.016 -0.19,0.026 -0.183,0.275 l 0.024,0.794 c 0.007,0.263 0.012,0.27 0.182,0.287 v 0.092 h -0.741 V 82.86 c 0.177,-0.017 0.185,-0.024 0.182,-0.287 l -0.007,-0.834 h -0.01 l -0.457,1.187 h -0.128 l -0.434,-1.104 h -0.005 l -0.016,0.526 c -0.008,0.204 -0.005,0.317 0.004,0.39 0.01,0.088 0.062,0.109 0.216,0.121 v 0.092 h -0.585 V 82.86 c 0.114,-0.01 0.159,-0.033 0.173,-0.121 0.012,-0.073 0.026,-0.199 0.038,-0.414 l 0.026,-0.479 c 0.016,-0.298 -0.002,-0.324 -0.189,-0.341 v -0.093 h 0.556 l 0.415,0.938 0.362,-0.938 z"
   id="path216" />
		<path
   class="st3"
   d="m 263.088,82.573 c 0,0.255 0.019,0.272 0.182,0.287 v 0.092 h -0.767 V 82.86 c 0.163,-0.015 0.182,-0.031 0.182,-0.287 v -0.782 c 0,-0.255 -0.019,-0.272 -0.182,-0.286 v -0.093 h 0.767 v 0.093 c -0.164,0.014 -0.182,0.031 -0.182,0.286 z"
   id="path218" />
		<path
   class="st3"
   d="m 264.849,82.969 h -0.203 l -0.876,-1.118 h -0.005 v 0.436 c 0,0.249 0.01,0.379 0.019,0.452 0.012,0.083 0.076,0.114 0.232,0.121 v 0.092 h -0.59 V 82.86 c 0.104,-0.005 0.165,-0.038 0.177,-0.121 0.009,-0.073 0.019,-0.203 0.019,-0.452 V 81.85 c 0,-0.175 -0.004,-0.206 -0.052,-0.272 -0.036,-0.05 -0.095,-0.066 -0.179,-0.073 v -0.093 h 0.523 l 0.789,0.983 h 0.005 v -0.318 c 0,-0.249 -0.01,-0.379 -0.019,-0.452 -0.012,-0.083 -0.076,-0.113 -0.232,-0.12 v -0.093 h 0.604 v 0.093 c -0.118,0.004 -0.18,0.038 -0.192,0.12 -0.009,0.074 -0.019,0.203 -0.019,0.452 v 0.892 z"
   id="path220" />
		<path
   class="st3"
   d="m 265.839,82.86 0.072,-0.01 c 0.088,-0.012 0.092,-0.036 0.061,-0.121 l -0.085,-0.241 h -0.388 l -0.071,0.227 c -0.031,0.102 -0.031,0.126 0.078,0.137 l 0.068,0.008 v 0.092 h -0.552 V 82.86 c 0.121,-0.017 0.157,-0.027 0.235,-0.225 l 0.474,-1.224 0.163,-0.033 0.161,0.447 c 0.102,0.282 0.204,0.562 0.294,0.803 0.076,0.205 0.119,0.217 0.235,0.232 v 0.092 H 265.84 V 82.86 Z m -0.3,-0.514 h 0.303 l -0.149,-0.453 h -0.007 z"
   id="path222" />
	</g>
	<g
   id="g232">
		<path
   class="st3"
   d="m 262.3,85.415 c 0,0.255 0.019,0.272 0.218,0.287 v 0.092 h -0.829 v -0.092 c 0.189,-0.014 0.208,-0.031 0.208,-0.287 v -1.037 h -0.04 c -0.159,0 -0.223,0.029 -0.261,0.072 -0.028,0.035 -0.056,0.097 -0.088,0.229 h -0.099 c 0.009,-0.199 0.024,-0.362 0.028,-0.483 h 0.073 c 0.036,0.054 0.06,0.059 0.124,0.059 h 0.945 c 0.062,0 0.073,-0.014 0.112,-0.059 h 0.073 c 0.003,0.1 0.014,0.301 0.026,0.476 l -0.104,0.007 c -0.036,-0.142 -0.061,-0.203 -0.097,-0.244 -0.04,-0.043 -0.119,-0.057 -0.232,-0.057 H 262.3 Z"
   id="path226" />
		<path
   class="st3"
   d="m 263.54,85.415 c 0,0.255 0.019,0.272 0.182,0.287 v 0.092 h -0.767 v -0.092 c 0.164,-0.014 0.182,-0.031 0.182,-0.287 v -0.782 c 0,-0.256 -0.019,-0.272 -0.182,-0.287 v -0.092 h 0.767 v 0.092 c -0.164,0.014 -0.182,0.031 -0.182,0.287 z"
   id="path228" />
		<path
   class="st3"
   d="m 265.509,85.005 c 0,0.507 -0.346,0.824 -0.8,0.824 -0.479,0 -0.789,-0.348 -0.789,-0.784 0,-0.383 0.256,-0.826 0.822,-0.826 0.433,0 0.767,0.318 0.767,0.786 z m -1.149,-0.04 c 0,0.429 0.161,0.742 0.393,0.742 0.204,0 0.315,-0.197 0.315,-0.626 0,-0.476 -0.17,-0.739 -0.374,-0.739 -0.182,0 -0.334,0.208 -0.334,0.623 z"
   id="path230" />
	</g>
	<g
   id="g240">
		<path
   class="st3"
   d="m 262.999,87.096 v 0.092 c -0.18,0.016 -0.189,0.026 -0.183,0.275 l 0.024,0.793 c 0.007,0.263 0.012,0.27 0.182,0.287 v 0.092 h -0.741 v -0.092 c 0.177,-0.017 0.185,-0.024 0.182,-0.287 l -0.007,-0.834 h -0.01 l -0.457,1.187 h -0.128 l -0.434,-1.103 h -0.005 l -0.016,0.526 c -0.007,0.203 -0.005,0.317 0.005,0.391 0.009,0.088 0.061,0.109 0.215,0.121 v 0.092 h -0.585 v -0.092 c 0.114,-0.01 0.159,-0.033 0.173,-0.121 0.012,-0.074 0.026,-0.199 0.038,-0.415 l 0.026,-0.478 c 0.016,-0.299 -0.002,-0.325 -0.19,-0.341 v -0.092 h 0.557 l 0.414,0.938 0.363,-0.938 h 0.577 z"
   id="path234" />
		<path
   class="st3"
   d="m 263.365,87.475 c 0,-0.256 -0.019,-0.272 -0.177,-0.287 v -0.092 h 1.123 c 0.002,0.04 0.014,0.213 0.026,0.391 l -0.104,0.007 c -0.024,-0.116 -0.05,-0.182 -0.088,-0.22 -0.038,-0.04 -0.116,-0.055 -0.242,-0.055 h -0.04 c -0.09,0 -0.095,0 -0.095,0.083 v 0.457 h 0.118 c 0.204,0 0.211,-0.014 0.235,-0.194 h 0.104 v 0.559 h -0.104 c -0.024,-0.208 -0.031,-0.223 -0.235,-0.223 h -0.118 v 0.386 c 0,0.124 0.004,0.182 0.047,0.203 0.038,0.02 0.092,0.021 0.166,0.021 0.095,0 0.199,-0.014 0.251,-0.071 0.04,-0.043 0.08,-0.13 0.116,-0.244 l 0.104,0.017 c -0.012,0.116 -0.062,0.358 -0.083,0.422 h -1.205 v -0.092 c 0.182,-0.015 0.201,-0.032 0.201,-0.287 z"
   id="path236" />
		<path
   class="st3"
   d="m 265.284,88.544 0.072,-0.01 c 0.088,-0.012 0.092,-0.035 0.061,-0.12 l -0.085,-0.242 h -0.388 l -0.072,0.227 c -0.031,0.102 -0.031,0.125 0.078,0.137 l 0.069,0.008 v 0.092 h -0.552 v -0.092 c 0.121,-0.017 0.157,-0.027 0.235,-0.226 l 0.474,-1.224 0.164,-0.033 0.161,0.448 c 0.102,0.282 0.204,0.561 0.294,0.803 0.076,0.206 0.119,0.218 0.235,0.232 v 0.092 h -0.744 v -0.092 z m -0.301,-0.515 h 0.303 l -0.149,-0.452 h -0.008 z"
   id="path238" />
	</g>
	<path
   class="st0"
   d="m 256.73,108.133 c 0,0.359 -0.292,0.651 -0.651,0.651 -0.359,0 -0.651,-0.291 -0.651,-0.651 0,-0.36 0.291,-0.651 0.651,-0.651 0.36,0 0.651,0.292 0.651,0.651 z"
   id="path242" />
	<path
   class="st0"
   d="m 263.14,109.185 c 0,0.359 -0.292,0.651 -0.651,0.651 -0.359,0 -0.651,-0.291 -0.651,-0.651 0,-0.359 0.292,-0.65 0.651,-0.65 0.359,0 0.651,0.29 0.651,0.65 z"
   id="path244" />
	<path
   class="st0"
   d="M 238.562,73.669 Z"
   id="path246" />
	<path
   class="st0"
   d="M 263.897,66.536 Z"
   id="path248" />
	<path
   class="st0"
   d="M 265.118,62.247 Z"
   id="path250" />
	<path
   class="st0"
   d="M 275.316,74.805 Z"
   id="path252" />
	<path
   class="st0"
   d="M 282.461,88.932 Z"
   id="path254" />
	<path
   class="st0"
   d="M 280.23,95.359 Z"
   id="path256" />
	<path
   class="st0"
   d="m 241.464,95.872 c 0.222,0.001 0.853,0.062 1.386,0.821 0.219,0.312 0.375,0.68 0.374,1.065 -10e-4,0.637 -0.311,1.005 -1.059,1.531 l -1.983,1.4 -0.539,-0.767 2.221,-1.567 c 0.205,-0.144 0.479,-0.382 0.48,-0.687 0,-0.168 -0.023,-0.304 -0.175,-0.521 -0.235,-0.335 -0.482,-0.363 -0.638,-0.363 -0.236,0 -0.459,0.142 -0.936,0.478 l -1.925,1.255 -0.524,-0.746 2.044,-1.338 c 0.538,-0.38 0.887,-0.563 1.274,-0.561 z"
   id="path258" />
	<path
   class="st0"
   d="m 237.932,94.059 2.715,-1.066 0.293,0.762 -4.099,1.589 -0.29,-0.794 2.121,-2.701 -2.735,0.956 -0.292,-0.8 4.136,-1.447 0.275,0.751 z"
   id="path260" />
	<path
   class="st0"
   d="m 234.985,88.606 4.354,-0.662 0.141,0.927 -4.355,0.662 z"
   id="path262" />
	<path
   class="st0"
   d="m 239.184,85.052 -4.465,1.338 0.04,-0.944 3.35,-0.902 -3.261,-1.201 0.039,-0.917 4.336,1.717 z"
   id="path264" />
	<path
   class="st0"
   d="m 235.353,80.041 0.73,-2.566 0.724,0.206 -0.477,1.677 0.985,0.28 0.448,-1.575 0.711,0.202 -0.448,1.575 1.08,0.307 0.492,-1.728 0.737,0.21 -0.745,2.617 z"
   id="path266" />
	<path
   class="st0"
   d="m 242.079,75.1 -1.304,-0.116 c -0.618,-0.057 -0.678,0.091 -0.852,0.403 l -0.052,0.092 1.548,0.823 -0.46,0.814 -3.872,-2.12 0.634,-1.114 c 0.287,-0.514 0.592,-1.059 1.367,-1.059 0.487,0 1.164,0.409 1.164,1.144 0,0.13 -0.032,0.268 -0.086,0.413 0.174,-0.251 0.49,-0.288 0.776,-0.285 0.16,0.002 0.315,0.025 0.444,0.036 l 1.175,0.103 z m -3.251,-1.333 c -0.225,0.064 -0.341,0.237 -0.508,0.537 l -0.145,0.25 1.068,0.576 0.18,-0.323 c 0.151,-0.271 0.184,-0.427 0.131,-0.615 -0.041,-0.144 -0.176,-0.295 -0.308,-0.369 -0.156,-0.088 -0.31,-0.087 -0.418,-0.056 z"
   id="path268" />
	<path
   class="st0"
   d="m 244.03,66.428 0.749,-0.564 2.651,3.517 -0.749,0.564 z"
   id="path270" />
	<path
   class="st0"
   d="m 248.972,64.244 1.674,3.246 -0.833,0.43 -1.674,-3.246 -1.074,0.554 -0.345,-0.669 2.976,-1.535 0.345,0.669 z"
   id="path272" />
	<path
   class="st0"
   d="m 254.127,64.48 0.425,1.704 -0.872,0.217 -0.425,-1.705 -1.986,-2.234 0.923,-0.23 1.313,1.537 0.442,-1.978 0.885,-0.217 z"
   id="path274" />
	<path
   class="st0"
   d="m 270.07,66.062 1.39,0.828 -0.378,0.636 -1.39,-0.828 -0.966,1.623 -0.794,-0.473 2.253,-3.785 2.258,1.345 -0.385,0.646 -1.464,-0.871 z"
   id="path276" />
	<path
   class="st0"
   d="m 277.986,80.371 1.204,-1.325 -1.749,-0.414 -0.288,-0.92 2.6,0.679 1.63,-1.908 0.302,0.964 -1.119,1.222 1.624,0.391 0.282,0.901 -2.417,-0.647 -1.77,2.015 z"
   id="path278" />
	<path
   class="st0"
   d="m 282.199,83.511 -1.021,0.082 0.108,1.627 -0.738,0.049 -0.108,-1.614 -1.884,0.127 -0.063,-0.885 4.396,-0.36 0.176,2.648 -0.751,0.05 z"
   id="path280" />
	<path
   class="st0"
   d="m 285.294,85.672 c 0.118,-14.53 -11.627,-26.447 -26.183,-26.565 -6.801,-0.055 -13.281,2.468 -18.245,7.104 -5.335,4.983 -8.306,11.742 -8.365,19.033 -0.071,8.693 4.147,16.831 11.284,21.817 0.677,2.823 3.226,4.931 6.267,4.931 0.869,0 1.713,-0.17 2.507,-0.504 0.846,0.268 1.714,0.495 2.58,0.677 -0.281,0.774 -0.679,1.502 -1.068,2.162 l 0.632,0.632 c 0.151,-0.1 0.329,-0.149 0.507,-0.15 0.483,0 0.946,0.331 0.942,0.927 0,0.485 -0.327,0.939 -1.006,0.938 -0.369,0 -0.846,-0.195 -1.103,-0.746 0,0 -0.172,0.537 -0.172,1.184 0,1.959 2.129,4.116 4.979,5.019 2.866,-0.896 4.986,-3.059 4.986,-5.019 0,-0.647 -0.171,-1.184 -0.171,-1.184 -0.258,0.551 -0.734,0.746 -1.103,0.746 -0.679,0 -1.007,-0.454 -1.007,-0.938 -0.004,-0.597 0.459,-0.927 0.942,-0.927 0.178,0.001 0.355,0.05 0.507,0.15 l 0.58,-0.577 0.015,-0.008 0.024,-0.031 c 0.002,0.002 0.005,0.002 0.008,0.004 l 0.001,-0.016 0.004,-0.004 -0.003,-0.004 v -10e-4 c -0.285,-0.683 -0.493,-1.305 -0.64,-1.899 4.726,-0.648 8.716,-2.655 11.891,-5.993 l -0.004,-0.006 c 6.553,-4.982 10.348,-12.521 10.414,-20.752 z m -35.242,25.434 c -3.041,0 -5.515,-2.483 -5.515,-5.535 0,-0.954 0.242,-1.852 0.667,-2.636 0.282,0.256 0.583,0.522 0.896,0.791 -0.269,0.567 -0.423,1.197 -0.423,1.864 0,1.657 0.835,3.025 2.415,3.957 0.917,0.541 1.957,1.028 3.058,1.45 -0.359,0.072 -0.725,0.109 -1.098,0.109 z m 8.846,-8.081 c -1.031,0 -2.048,-0.093 -3.047,-0.268 -1.076,-2.193 -3.346,-3.607 -5.798,-3.607 -0.629,0 -1.235,0.094 -1.81,0.262 -4.326,-3.315 -6.903,-8.494 -6.903,-13.953 0,-9.686 7.876,-17.566 17.558,-17.566 9.681,0 17.557,7.88 17.557,17.566 0,9.686 -7.876,17.566 -17.557,17.566 z m 3.746,0.505 c -0.455,0.733 -0.734,1.687 -0.83,2.652 -1.607,-0.421 -3.07,-0.977 -4.351,-1.559 0.177,-0.371 0.594,-0.715 1.303,-0.715 0.044,0 0.088,0.003 0.132,0.003 1.283,0 2.536,-0.131 3.746,-0.381 z m -5.615,0.289 c -0.146,0.128 -0.267,0.273 -0.365,0.427 -0.564,-0.239 -1.651,-0.747 -2.005,-0.959 0.559,0.18 1.805,0.476 2.37,0.532 z m -6.977,-3.783 c 1.847,0 3.577,0.949 4.591,2.468 -0.892,-0.222 -1.767,-0.513 -2.621,-0.877 l -0.002,0.005 -0.025,-0.015 c -0.595,-0.28 -1.232,-0.423 -1.895,-0.423 -1.471,0 -2.773,0.72 -3.577,1.822 -0.337,-0.187 -0.673,-0.384 -1.004,-0.589 0.996,-1.442 2.656,-2.391 4.533,-2.391 z m 12.367,13.956 c -1.012,0 -1.763,0.789 -1.763,1.764 0,1.137 0.795,1.821 1.821,1.821 0.128,0 0.252,-0.014 0.372,-0.04 -0.306,1.417 -1.981,2.952 -4,3.639 -1.984,-0.687 -3.686,-2.222 -3.992,-3.639 0.12,0.025 0.244,0.04 0.371,0.04 1.025,0 1.821,-0.684 1.821,-1.821 0,-0.975 -0.751,-1.764 -1.763,-1.764 0.255,-0.469 0.544,-1.047 0.758,-1.653 1.192,0.204 2.364,0.316 3.457,0.316 0.882,0 1.739,-0.046 2.576,-0.128 0.112,0.431 0.385,1.257 0.456,1.473 -0.033,-0.005 -0.071,-0.008 -0.114,-0.008 z m -2.916,-2.224 c -3.516,0 -7.904,-1.195 -10.918,-2.974 -0.9,-0.531 -1.974,-1.518 -1.974,-3.204 0,-0.438 0.084,-0.856 0.23,-1.243 1.139,0.937 2.306,1.809 3.043,2.213 0.174,0.096 0.274,0.142 0.476,0.142 0.484,0 0.877,-0.394 0.877,-0.88 0,-0.371 -0.202,-0.673 -0.534,-0.818 -0.632,-0.276 -1.943,-0.819 -3.363,-1.55 0.638,-0.832 1.637,-1.372 2.76,-1.372 0.517,0 1.015,0.111 1.479,0.33 l 0.96,0.559 c 3.051,1.864 10.849,6.625 20.299,4.152 -3.57,3.118 -7.949,4.645 -13.335,4.645 z m 14.767,-6.016 c -4.224,1.489 -8.168,1.394 -11.541,0.65 0.108,-1.444 0.645,-3.045 1.535,-3.286 7.587,-2.301 13.125,-9.345 13.125,-17.658 0,-10.175 -8.295,-18.453 -18.491,-18.453 -10.197,0 -18.492,8.278 -18.492,18.453 0,5.558 2.546,10.845 6.852,14.335 -1.009,0.486 -1.87,1.226 -2.504,2.134 -0.303,-0.211 -0.595,-0.428 -0.868,-0.653 l -0.172,0.173 c 0.187,0.227 0.466,0.517 0.804,0.845 -0.578,0.96 -0.914,2.08 -0.914,3.279 0,0.083 0.009,0.163 0.012,0.244 -6.455,-4.852 -10.245,-12.455 -10.18,-20.564 0.057,-7.054 2.929,-13.591 8.086,-18.408 4.786,-4.47 11.03,-6.903 17.582,-6.85 14.04,0.114 25.37,11.63 25.256,25.671 -0.065,7.975 -3.741,15.274 -10.09,20.088 z"
   id="path282" />
	<path
   class="st0"
   d="m 244.83,71.157 c 0,0.377 -0.165,0.775 -0.494,1.136 -0.633,0.692 -1.308,0.755 -1.378,0.754 l -0.191,-0.73 c 0.106,-0.028 0.602,-0.13 0.954,-0.515 0.159,-0.174 0.241,-0.359 0.241,-0.523 0,-0.174 -0.115,-0.476 -0.473,-0.476 -0.383,0 -1.023,0.554 -1.679,0.554 -0.252,0 -0.532,-0.035 -0.824,-0.303 -0.282,-0.257 -0.412,-0.586 -0.412,-0.921 0,-0.365 0.167,-0.749 0.477,-1.087 0.588,-0.643 1.236,-0.695 1.292,-0.698 l 0.158,0.717 c -0.074,0.013 -0.556,0.118 -0.854,0.445 -0.153,0.168 -0.235,0.35 -0.235,0.51 0,0.173 0.11,0.386 0.396,0.39 0.315,0.004 1.107,-0.575 1.751,-0.575 0.299,0 0.516,0.053 0.818,0.33 0.301,0.276 0.453,0.624 0.453,0.992 z"
   id="path284" />
	<path
   class="st0"
   d="m 265.12,66.728 c -1.123,0 -2.143,-0.856 -2.143,-2.142 0,-1.149 0.77,-2.483 2.17,-2.483 1.138,0 2.192,0.805 2.191,2.098 0,0.974 -0.657,2.527 -2.218,2.527 z m 1.279,-2.539 c 0,-0.304 -0.069,-0.622 -0.253,-0.869 -0.191,-0.256 -0.505,-0.436 -0.877,-0.436 -0.79,0 -1.368,0.979 -1.368,1.788 0,0.751 0.507,1.261 1.188,1.261 0.894,0 1.31,-1.16 1.31,-1.744 z"
   id="path286" />
	<path
   class="st0"
   d="m 277.338,76.139 c -1.34,0 -2.079,-1.292 -2.079,-2.158 0,-1.314 1.415,-2.318 2.519,-2.318 1.204,0 2.089,1.145 2.089,2.183 0,1.179 -1.232,2.293 -2.529,2.293 z m -0.156,-0.894 c 0.774,0 1.846,-0.67 1.846,-1.57 0,-0.621 -0.482,-1.104 -1.1,-1.104 -0.724,0 -1.827,0.643 -1.827,1.552 0,0.484 0.371,1.122 1.081,1.122 z"
   id="path288" />
	<path
   class="st0"
   d="m 278.205,89.114 c 0,-1.088 0.737,-2.157 2.201,-2.157 1.231,0 2.421,0.759 2.421,2.122 0,1.12 -0.717,2.196 -2.171,2.196 -1.244,-0.001 -2.451,-0.786 -2.451,-2.161 z m 2.499,1.219 c 0.781,0 1.353,-0.478 1.353,-1.179 0,-0.837 -0.969,-1.263 -1.718,-1.263 -0.958,0 -1.347,0.623 -1.347,1.209 10e-4,0.917 1.125,1.233 1.712,1.233 z"
   id="path290" />
	<path
   class="st0"
   d="m 276.53,94.306 1.309,0.006 c 0.621,0.005 0.669,-0.147 0.816,-0.472 l 0.044,-0.096 -1.576,-0.731 0.378,-0.836 3.987,1.841 -0.511,1.147 c -0.349,0.772 -0.648,1.161 -1.38,1.161 -0.469,0 -1.158,-0.391 -1.152,-1.108 0.001,-0.111 0.016,-0.229 0.052,-0.355 -0.235,0.407 -0.825,0.351 -1.195,0.351 l -1.18,-0.004 z m 2.554,0.491 c 0,0.336 0.283,0.604 0.598,0.604 0.282,0 0.458,-0.154 0.623,-0.521 l 0.138,-0.328 -1.089,-0.511 -0.182,0.406 c -0.06,0.132 -0.088,0.249 -0.088,0.35 z"
   id="path292" />
	<path
   class="st0"
   d="m 273.849,99.177 c 0,-0.901 0.417,-1.392 0.946,-2.042 l 0.572,-0.702 3.416,2.78 -0.767,0.942 c -0.433,0.532 -0.943,1.187 -1.923,1.187 -0.558,0 -1.048,-0.259 -1.395,-0.541 -0.434,-0.352 -0.849,-0.951 -0.849,-1.624 z m 2.346,1.292 c 0.465,0 0.734,-0.139 1.268,-0.796 l 0.167,-0.205 -2.269,-1.846 -0.279,0.343 c -0.273,0.336 -0.415,0.667 -0.415,0.985 0,0.424 0.21,0.797 0.639,1.147 0.31,0.251 0.594,0.372 0.889,0.372 z"
   id="path294" />
</g>
</svg>
